# xmcd CD database file
#
# Track frame offsets:
#	150
#	13140
#	28842
#	42814
#	62469
#	77479
#	94600
#	113146
#	127763
#	146770
#	160067
#	175100
#
# Disc length: 2503 seconds
#
# Revision: 0
# Processed by: cddbd v1.5.2PL0 Copyright (c) Steve Scherf et al.
# Submitted via: CDex 1.51
#
DISCID=8c09c50c
DTITLE=Nathan Carter - The Way That You Love Me
DYEAR=2010
DGENRE=Country
TTITLE0=The Way That You Love Me
TTITLE1=After All These Years
TTITLE2=Break My Mind
TTITLE3=Buck Owens Medley
TTITLE4=Mr. Man In The Moon
TTITLE5=How Could I Love Her So Much
TTITLE6=I Still Believe In You
TTITLE7=Face On The Cutting Room Floor
TTITLE8=My Dear Ireland
TTITLE9=Got No Reason
TTITLE10=Leavin Of Liverpool - Star Of Co. Down - Donegal Danny
TTITLE11=Games People Play
EXTD=YEAR: 2010
EXTT0=
EXTT1=
EXTT2=
EXTT3=
EXTT4=
EXTT5=
EXTT6=
EXTT7=
EXTT8=
EXTT9=
EXTT10=
EXTT11=
PLAYORDER=
